<svg xmlns="http://www.w3.org/2000/svg" viewBox="0 0 186.05 119.3"><title>Asset 27</title><g id="Layer_2" data-name="Layer 2"><g id="Layer_2-2" data-name="Layer 2"><path d="M180.68,44.61s16,23-10,45-59,33-67,28-7-16-7-16l.71-.56c1.81,3.37,5.91,5.62,15.29,6.56,20,2,43-17,59-33,12.44-12.44,13.39-19.44,8-29.47Z" fill="#b3b3b3"/><path d="M179.71,45.14c5.36,10,4.41,17-8,29.47-16,16-39,35-59,33-9.38-.94-13.48-3.19-15.29-6.56-2.06-3.82-1.18-9.06-1.71-15.44-1-12-5-14-6-8s1,12-2,19c-.29.67-.53,1.34-.75,2-2.12,6.23-2.73,11.52-26.25,7-26-5-53-30-55-42C4.18,54.64,6,49,15,39.65c3-3.16,6.87-6.75,11.66-11A137.51,137.51,0,0,1,51.21,11.3l0,.06c-.5,1.25-10.5,4.25-9.5,9.25s10,20,9,25-11,9-10,14-5,7-8,11,2,7,9,14,15,14,19,7,8-8,16-15,12-19,21-12,9,12,14,14,8,8,12,11,10,3,18-7,9-17,2-25-8-13-10-15-6-5-2-13,4-14,4-15c0-.36-.9-1.37-2.25-2.42,17,6.67,34.67,15.3,40.25,23.42A109.27,109.27,0,0,1,179.71,45.14Z" fill="#ece8e9"/><path d="M143.68,57.61c7,8,6,15-2,25s-14,10-18,7-7-9-12-11-5-7-14-14-13,5-21,12-12,8-16,15-12,0-19-7-12-10-9-14,9-6,8-11,9-9,10-14-8-20-9-25,9-8,9.5-9.25l0-.06,1-.54c1.34-.09,3.9,1,7.49,3.85,5,4,7,22,10,25s4,2,12,6,8,5,10,3,4-4,14-6,10-11,13-19,6-14,6-14a4,4,0,0,1,1-.34c2.52.93,5.11,1.9,7.71,2.92,1.35,1,2.25,2.06,2.25,2.42,0,1,0,7-4,15s0,11,2,13S136.68,49.61,143.68,57.61Z" fill="#cf9"/><path d="M88.68,5.61a8,8,0,0,1,9-5c2.9.41,14.58,3.75,28,8.66a4,4,0,0,0-1,.34s-3,6-6,14-3,17-13,19-12,4-14,6-2,1-10-3-9-3-12-6-5-21-10-25c-3.59-2.88-6.15-3.94-7.49-3.85C63.74,4.47,74.05,1,78.68,1.61c0,0,5-3,9,4Z" fill="#ece8e9"/><path d="M87.68,98.61s9,10.47-.19,15.65S46.64,118.41,30.3,103.9-1.36,75.9.68,64.49,4.77,46.87,15,39.61l0,0c-9,9.37-10.84,15-9.34,24,2,12,29,37,55,42,23.52,4.52,24.13-.77,26.25-7Z" fill="#b3b3b3"/><path d="M90.68,41.61l-2-36a8,8,0,0,1,9-5c2.9.41,14.58,3.75,28,8.66,2.52.93,5.11,1.9,7.71,2.92,17,6.67,34.67,15.3,40.25,23.42a109.27,109.27,0,0,1,6,9.53c5.36,10,4.41,17-8,29.47-16,16-39,35-59,33-9.38-.94-13.48-3.19-15.29-6.56-2.06-3.82-1.18-9.06-1.71-15.44-1-12-5-14-6-8s1,12-2,19c-.29.67-.53,1.34-.75,2-2.12,6.23-2.73,11.52-26.25,7-26-5-53-30-55-42C4.18,54.64,6,49,15,39.65c3-3.16,6.87-6.75,11.66-11A137.51,137.51,0,0,1,51.21,11.3l1-.54C63.74,4.47,74.05,1,78.68,1.61c0,0,5-3,9,4" fill="none" stroke="#000" stroke-linecap="round" stroke-miterlimit="10"/><path d="M125.72,9.27a4,4,0,0,0-1,.34s-3,6-6,14-3,17-13,19-12,4-14,6-2,1-10-3-9-3-12-6-5-21-10-25c-3.59-2.88-6.15-3.94-7.49-3.85a1.06,1.06,0,0,0-1,.54l0,.06c-.5,1.25-10.5,4.25-9.5,9.25s10,20,9,25-11,9-10,14-5,7-8,11,2,7,9,14,15,14,19,7,8-8,16-15,12-19,21-12,9,12,14,14,8,8,12,11,10,3,18-7,9-17,2-25-8-13-10-15-6-5-2-13,4-14,4-15c0-.36-.9-1.37-2.25-2.42C131.34,10.57,128.19,8.84,125.72,9.27Z" fill="none" stroke="#000" stroke-linecap="round" stroke-miterlimit="10"/><path d="M180.68,44.61s16,23-10,45-59,33-67,28-7-16-7-16" fill="none" stroke="#000" stroke-linecap="round" stroke-miterlimit="10"/><path d="M87.68,98.61s9,10.47-.19,15.65S46.64,118.41,30.3,103.9-1.36,75.9.68,64.49,4.77,46.87,15,39.61" fill="none" stroke="#000" stroke-linecap="round" stroke-miterlimit="10"/><path d="M31.39,56.29a6.27,6.27,0,0,0,1,2.48,2.62,2.62,0,0,0,2.45,1.1,2.56,2.56,0,0,0,1.41-1.09c2.17-2.87,5.15-12.57-1-14.1C28.69,43.08,30.67,53.14,31.39,56.29Z" fill="#fff" stroke="#000" stroke-linecap="round" stroke-miterlimit="10"/><path d="M145.54,60.77c.22.74.58,1.6,1.33,1.65s1.32-.74,1.72-1.42a36.86,36.86,0,0,0,3.23-6.38,11.79,11.79,0,0,0,.52-6.92c-.91-3.31-3.73-5.5-6.51-7.26a1.9,1.9,0,0,0-1.42-.42c-3.59.87-3.46,6.32-2.56,8.53C143.45,52.46,144.33,56.63,145.54,60.77Z" fill="#fff" stroke="#000" stroke-linecap="round" stroke-miterlimit="10"/><path d="M74.64,101.88a13,13,0,0,0,4.29.52,8.91,8.91,0,0,0,4.86-1.06,2,2,0,0,0,.47-.39,1.7,1.7,0,0,0,.35-1,2.92,2.92,0,0,0-3.36-3,11.79,11.79,0,0,0-2.2.72,9.46,9.46,0,0,1-3.78.54c-1-.06-3.35-.57-3.49,1C71.67,100.49,73.66,101.54,74.64,101.88Z" fill="#fff" stroke="#000" stroke-linecap="round" stroke-linejoin="round" stroke-width="0.5"/></g></g></svg>